<svg xmlns="http://www.w3.org/2000/svg" viewBox="0 0 1618 1618"><defs><style>.cls-1{fill:#eee;}.cls-2{fill:#232323;}.cls-3{fill:#1b963b;}.cls-4{fill:#2f43a5;}</style></defs><title>Ativo 8</title><g id="Camada_2" data-name="Camada 2"><g id="Camada_1-2" data-name="Camada 1"><circle class="cls-1" cx="809" cy="809" r="809"/><path class="cls-2" d="M839,61.6l-.5,0Q823.82,61,809,61t-29.5.57l-.5,0A745.61,745.61,0,0,0,580,96.71l-.5.16V909h259v447.22q-14.68.78-29.5.78t-29.5-.78V969h-200v552.13l.5.16a745.61,745.61,0,0,0,199,35.11l.5,0q14.68.57,29.5.57t29.5-.57l.5,0a745.61,745.61,0,0,0,199-35.11l.5-.16V709h-259V261.78Q794.19,261,809,261t29.5.78V650h200V96.87l-.5-.16A745.61,745.61,0,0,0,839,61.6Z"/><path class="cls-3" d="M520,118.87A748.13,748.13,0,0,0,320.5,242.53c-.17.13-.33.28-.5.43a752.16,752.16,0,0,0-59.5,57.45l-.5.54A745.32,745.32,0,0,0,67.63,709a757.46,757.46,0,0,0,0,200,745.32,745.32,0,0,0,192.37,408l.5.54A752.16,752.16,0,0,0,320,1375c.17.15.33.3.5.43A748.13,748.13,0,0,0,520,1499.13l.5.2V1275c-.17-.1-.34-.2-.5-.31q-8.73-5.43-17.25-11.18A550.35,550.35,0,0,1,320.5,1057.66c-.18-.33-.34-.66-.5-1q-8.62-17-16-34.42A541.73,541.73,0,0,1,270,909H520.5V118.67ZM270,709A541.73,541.73,0,0,1,304,595.75q7.38-17.44,16-34.42V709Z"/><path class="cls-4" d="M1556.5,781.49q-1.3-36.21-6-71.49c0-.33-.08-.66-.13-1H1297.5V560.34q8.91,17.43,16.52,35.41A543.44,543.44,0,0,1,1333.65,650h206.42A746.19,746.19,0,0,0,1357,299.87l-.5-.54a755.06,755.06,0,0,0-59-56.8c-.17-.15-.33-.3-.5-.43a748.08,748.08,0,0,0-199-123.23l-.5-.2V1499.33l.5-.2a748.08,748.08,0,0,0,199-123.23c.17-.13.33-.28.5-.43V909h252.87q4.79-35.75,6.13-72.49.49-13.69.5-27.51T1556.5,781.49Z"/><polygon class="cls-1" points="1363 793.2 1363 824.8 1562 824.8 1562 863 56 863 56 824.8 255 824.8 255 793.2 56 793.2 56 755 1562 755 1562 793.2 1363 793.2"/><path class="cls-2" d="M404.08,781.06h23.19c13.67,0,20.6,7,17.39,19l0,.15c-3.42,12.75-15,19.47-28.48,19.47h-7.42l-4.14,15.46h-15ZM419,808c5.33,0,9.32-2.78,10.46-7l0-.16c1.24-4.64-1.34-7.11-6.75-7.11h-7L411.87,808Z"/><path class="cls-2" d="M456.09,781.06h25.58c8.26,0,13.4,2.16,16,5.87,2.34,3.09,2.84,7.26,1.42,12.59l-.05.16c-2.21,8.27-8.09,13.75-15.58,16.61l7.86,18.86H474.05l-6.51-16.38H461l-4.38,16.38h-15ZM474,807c5.1,0,8.7-2.47,9.76-6.41l0-.16c1.14-4.25-1.37-6.41-6.4-6.41H467.6l-3.48,13Z"/><path class="cls-2" d="M502.51,808.26l0-.16C506.71,792.57,522.6,780,539.29,780s25.72,12.45,21.56,28l0,.15c-4.16,15.53-20.06,28.13-36.75,28.13S498.34,823.79,502.51,808.26Zm43,0,0-.16c2.09-7.8-1.73-14.6-10-14.6S520.06,800.14,518,808l-.05.15c-2.09,7.81,1.73,14.61,9.92,14.61S543.38,816.06,545.47,808.26Z"/><path class="cls-2" d="M602.24,827.11l11-10a21.5,21.5,0,0,0,15.8,6.49c4,0,6.56-1.39,7.18-3.71l0-.15c.6-2.24-.85-3.48-7.73-5.18-10.81-2.62-18.83-5.87-15.85-17l0-.15c2.69-10.05,12.59-17.31,25.57-17.31,9.2,0,15.72,2.47,20.33,7.18L648.31,797.9a21.12,21.12,0,0,0-13.71-5.33c-3.64,0-5.83,1.55-6.35,3.48l0,.15c-.66,2.47.91,3.56,7.94,5.26,11.72,2.7,18.37,6.72,15.66,16.84l0,.16c-3,11-13.46,17.62-26.59,17.62C615.6,836.08,607.29,833.06,602.24,827.11Z"/><path class="cls-2" d="M669.05,781.06h15L678.16,803l24.51-21.94h17.77l-26.71,23.26,12.91,30.83h-18l-8.22-20.09-7.12,6.1-3.75,14h-15Z"/><path class="cls-2" d="M725.77,781.06h15.07l-14.49,54.09H711.28Z"/><path class="cls-2" d="M750.73,781.06h15l-11,41h26.19l-3.52,13.14H736.24Z"/><path class="cls-2" d="M798.33,781.06h15l-11,41h26.19L825,835.15H783.84Z"/><path class="cls-2" d="M829.5,827.11l11-10a21.53,21.53,0,0,0,15.8,6.49c4,0,6.56-1.39,7.18-3.71l0-.15c.6-2.24-.84-3.48-7.73-5.18C845,812,837,808.72,840,797.59l0-.15c2.69-10.05,12.59-17.31,25.58-17.31,9.19,0,15.72,2.47,20.32,7.18L875.57,797.9a21.1,21.1,0,0,0-13.71-5.33c-3.64,0-5.83,1.55-6.34,3.48l0,.15c-.66,2.47.91,3.56,7.95,5.26,11.71,2.7,18.36,6.72,15.65,16.84l0,.16c-3,11-13.45,17.62-26.59,17.62C842.86,836.08,834.55,833.06,829.5,827.11Z"/><path class="cls-2" d="M939.12,781.06H982.4l-3.52,13.13H950.59l-2.46,9.2h25.58l-3.34,12.44H944.8l-5.18,19.32h-15Z"/><path class="cls-2" d="M980.36,811.42l8.14-30.36h15.22l-8.05,30.06c-2.09,7.8.86,11.51,6.88,11.51s10.92-3.55,13-11.13l8.16-30.44h15.22l-8,30c-4.68,17.46-16.7,25.11-32.08,25.11S975.83,828.35,980.36,811.42Z"/><path class="cls-2" d="M1057.46,794.19h-16.22l3.52-13.13h47.44l-3.52,13.13h-16.23l-11,41h-15Z"/><path class="cls-2" d="M1081.17,827.11l11-10a21.5,21.5,0,0,0,15.8,6.49c4,0,6.56-1.39,7.18-3.71l0-.15c.6-2.24-.85-3.48-7.73-5.18-10.81-2.62-18.83-5.87-15.85-17l0-.15c2.69-10.05,12.59-17.31,25.57-17.31,9.2,0,15.72,2.47,20.33,7.18l-10.33,10.59a21.12,21.12,0,0,0-13.71-5.33c-3.64,0-5.83,1.55-6.35,3.48l0,.15c-.66,2.47.9,3.56,7.94,5.26,11.72,2.7,18.37,6.72,15.66,16.84l0,.16c-3,11-13.46,17.62-26.59,17.62C1094.54,836.08,1086.23,833.06,1081.17,827.11Z"/><path class="cls-2" d="M1165.64,780.67h14.45l8.43,54.48h-16.08l-1.35-9.66h-20.86l-6.45,9.66H1128Zm4.25,33.15L1168,798.44l-10.22,15.38Z"/><path class="cls-2" d="M1208.27,781.06h15l-11,41h26.2L1235,835.15h-41.19Z"/></g></g></svg>