<svg xmlns="http://www.w3.org/2000/svg" viewBox="0 0 1496 1496"><defs><style>.cls-1{fill:#eee;}</style></defs><title>Ativo 9</title><g id="Camada_2" data-name="Camada 2"><g id="Camada_1-2" data-name="Camada 1"><path class="cls-1" d="M1302,763.8h193.83q.17-7.87.17-15.8t-.17-15.8H1302Z"/><path class="cls-1" d="M1036.5,802v636.33l.5-.2a748.08,748.08,0,0,0,199-123.23c.17-.13.33-.28.5-.43V848h252.87q3-22.79,4.71-46Z"/><path class="cls-1" d="M1494.07,694q-1.6-22.69-4.57-45c0-.33-.08-.66-.13-1H1236.5V499.34q8.91,17.43,16.52,35.41A543.44,543.44,0,0,1,1272.65,589h206.42A746.19,746.19,0,0,0,1296,238.87l-.5-.54a755.06,755.06,0,0,0-59-56.8c-.17-.15-.33-.3-.5-.43A748.08,748.08,0,0,0,1037,57.87l-.5-.2V694Z"/><path class="cls-1" d="M977.5,694V648h-259V200.78Q733.19,200,748,200t29.5.78V589h200V35.87l-.5-.16A745.61,745.61,0,0,0,778,.6l-.5,0Q762.82,0,748,0T718.5.57l-.5,0A745.61,745.61,0,0,0,519,35.71l-.5.16V694Z"/><path class="cls-1" d="M518.5,802v46h259v447.22q-14.68.78-29.5.78t-29.5-.78V908h-200v552.13l.5.16a745.61,745.61,0,0,0,199,35.11l.5,0q14.68.57,29.5.57t29.5-.57l.5,0a745.61,745.61,0,0,0,199-35.11l.5-.16V802Z"/><path class="cls-1" d="M459.5,694V57.67l-.5.2A748.13,748.13,0,0,0,259.5,181.53c-.17.13-.33.28-.5.43a752.16,752.16,0,0,0-59.5,57.45l-.5.54A745.32,745.32,0,0,0,6.63,648q-3,22.79-4.69,46ZM243,534.75q7.38-17.44,16-34.42V648H209A541.73,541.73,0,0,1,243,534.75Z"/><path class="cls-1" d="M459.5,848V802H1.94q1.66,23.21,4.69,46a745.32,745.32,0,0,0,192.37,408l.5.54A752.16,752.16,0,0,0,259,1314c.17.15.33.3.5.43A748.13,748.13,0,0,0,459,1438.13l.5.2V1214c-.17-.1-.34-.2-.5-.31q-8.73-5.43-17.25-11.18A550.35,550.35,0,0,1,259.5,996.66c-.18-.33-.34-.66-.5-1q-8.62-16.95-16-34.42A541.73,541.73,0,0,1,209,848H459.5Z"/><path class="cls-1" d="M194,732.2H.18C.07,737.45,0,742.72,0,748s.07,10.55.18,15.8H194Z"/><path class="cls-1" d="M344,718.4h23.18c13.68,0,20.6,7,17.39,19l0,.15c-3.42,12.75-15,19.48-28.48,19.48h-7.41l-4.15,15.45h-15Zm14.89,26.89c5.33,0,9.32-2.78,10.46-7l0-.15c1.25-4.64-1.34-7.11-6.75-7.11h-7l-3.83,14.29Z"/><path class="cls-1" d="M396,718.4h25.58c8.27,0,13.41,2.16,16,5.87,2.34,3.09,2.85,7.27,1.42,12.6l0,.15c-2.22,8.27-8.09,13.76-15.58,16.62l7.85,18.85H414l-6.5-16.38h-6.57l-4.39,16.38h-15Zm17.93,26c5.1,0,8.7-2.47,9.75-6.41l0-.15c1.14-4.26-1.37-6.42-6.39-6.42h-9.82l-3.47,13Z"/><path class="cls-1" d="M442.45,745.6l0-.15c4.16-15.54,20.06-28.13,36.75-28.13s25.72,12.44,21.55,28l0,.16C496.59,761,480.7,773.57,464,773.57S438.29,761.13,442.45,745.6Zm43,0,0-.15c2.09-7.81-1.72-14.61-10-14.61s-15.46,6.65-17.55,14.45l0,.16c-2.09,7.8,1.73,14.6,9.92,14.6S483.32,753.41,485.41,745.6Z"/><path class="cls-1" d="M542.18,764.46l11-10A21.5,21.5,0,0,0,569,761c4,0,6.55-1.39,7.17-3.71l0-.15c.6-2.25-.84-3.48-7.73-5.18-10.81-2.63-18.82-5.88-15.84-17l0-.16c2.69-10,12.6-17.31,25.58-17.31,9.19,0,15.72,2.47,20.33,7.19l-10.34,10.59a21.11,21.11,0,0,0-13.71-5.34c-3.63,0-5.82,1.55-6.34,3.48l0,.15c-.67,2.48.9,3.56,7.94,5.26,11.71,2.7,18.36,6.72,15.65,16.85l0,.15c-3,11.05-13.45,17.62-26.59,17.62C555.54,773.42,547.23,770.41,542.18,764.46Z"/><path class="cls-1" d="M609,718.4h15l-5.88,22,24.5-22h17.77l-26.71,23.26,12.91,30.83h-18l-8.22-20.09-7.12,6.11-3.75,14h-15Z"/><path class="cls-1" d="M665.72,718.4h15.06l-14.49,54.09H651.22Z"/><path class="cls-1" d="M690.68,718.4h15l-11,41h26.2l-3.52,13.13H676.18Z"/><path class="cls-1" d="M738.28,718.4h15l-11,41h26.2L765,772.49H723.78Z"/><path class="cls-1" d="M769.44,764.46l11-10a21.5,21.5,0,0,0,15.8,6.49c4,0,6.55-1.39,7.17-3.71l0-.15c.61-2.25-.84-3.48-7.73-5.18-10.8-2.63-18.82-5.88-15.84-17l0-.16c2.69-10,12.6-17.31,25.58-17.31,9.19,0,15.72,2.47,20.33,7.19l-10.33,10.59a21.16,21.16,0,0,0-13.72-5.34c-3.63,0-5.82,1.55-6.34,3.48l0,.15c-.66,2.48.9,3.56,7.94,5.26,11.72,2.7,18.37,6.72,15.65,16.85l0,.15c-3,11.05-13.45,17.62-26.59,17.62C782.8,773.42,774.49,770.41,769.44,764.46Z"/><path class="cls-1" d="M879.07,718.4h43.27l-3.52,13.14H890.54l-2.47,9.19h25.58l-3.33,12.44H884.74l-5.18,19.32h-15Z"/><path class="cls-1" d="M920.31,748.77l8.14-30.37h15.22l-8.06,30.06c-2.09,7.8.86,11.51,6.89,11.51s10.92-3.55,12.94-11.12l8.16-30.45h15.23l-8,30c-4.68,17.47-16.7,25.12-32.07,25.12S915.77,765.69,920.31,748.77Z"/><path class="cls-1" d="M997.41,731.54H981.18l3.52-13.14h47.44l-3.51,13.14H1012.4l-11,41h-15Z"/><path class="cls-1" d="M1021.12,764.46l11-10a21.53,21.53,0,0,0,15.81,6.49c4,0,6.55-1.39,7.17-3.71l0-.15c.6-2.25-.84-3.48-7.73-5.18-10.81-2.63-18.82-5.88-15.84-17l0-.16c2.69-10,12.6-17.31,25.58-17.31,9.19,0,15.72,2.47,20.33,7.19l-10.34,10.59a21.11,21.11,0,0,0-13.71-5.34c-3.63,0-5.82,1.55-6.34,3.48l0,.15c-.67,2.48.9,3.56,7.94,5.26,11.71,2.7,18.36,6.72,15.65,16.85l0,.15c-3,11.05-13.45,17.62-26.59,17.62C1034.48,773.42,1026.17,770.41,1021.12,764.46Z"/><path class="cls-1" d="M1105.58,718H1120l8.43,54.48h-16.07l-1.36-9.66h-20.86l-6.45,9.66H1068Zm4.25,33.16-1.9-15.38-10.23,15.38Z"/><path class="cls-1" d="M1148.21,718.4h15l-11,41h26.19l-3.52,13.13h-41.18Z"/></g></g></svg>